<?xml version="1.0" standalone="no"?>
<!DOCTYPE svg PUBLIC "-//W3C//DTD SVG 20010904//EN"
 "http://www.w3.org/TR/2001/REC-SVG-20010904/DTD/svg10.dtd">
<svg version="1.0" xmlns="http://www.w3.org/2000/svg"
 width="225.000000pt" height="225.000000pt" viewBox="0 0 225.000000 225.000000"
 preserveAspectRatio="xMidYMid meet">
<metadata>
Created by potrace 1.14, written by Peter Selinger 2001-2017
</metadata>
<g transform="translate(0.000000,225.000000) scale(0.100000,-0.100000)"
fill="#000000" stroke="none">
<path d="M965 2230 c-101 -16 -236 -60 -320 -103 -44 -22 -106 -54 -138 -69
-157 -79 -394 -399 -461 -623 -49 -163 -56 -256 -31 -435 32 -223 91 -372 214
-535 58 -76 213 -241 224 -237 4 1 27 -11 51 -27 169 -117 411 -191 621 -190
490 0 918 309 1069 771 31 95 56 254 56 349 -1 111 -43 328 -81 414 -133 305
-216 402 -456 533 -207 114 -338 151 -548 157 -77 2 -167 0 -200 -5z m337 -35
c47 -8 119 -26 159 -39 l74 -24 -73 -1 c-80 -1 -129 -20 -171 -65 -14 -14 -28
-26 -31 -26 -20 0 -154 -87 -180 -117 -33 -38 -38 -78 -18 -146 12 -40 12 -41
-22 -66 -79 -60 -80 -61 -80 -164 0 -117 32 -275 61 -299 24 -20 115 -48 158
-48 17 0 51 9 76 21 65 31 87 22 119 -51 33 -72 30 -86 -31 -151 l-45 -48 21
-47 c28 -63 26 -99 -9 -154 -88 -137 -79 -264 23 -310 46 -22 158 -27 215 -11
23 7 30 7 26 -1 -5 -8 -1 -9 10 -5 10 4 15 3 11 -3 -3 -5 -20 -7 -38 -4 -24 4
-28 3 -17 -5 13 -9 11 -11 -7 -11 -24 0 -69 -62 -58 -80 4 -6 3 -10 -2 -9 -20
3 -33 -2 -33 -14 0 -14 -84 -152 -107 -175 -7 -8 -10 -18 -7 -24 4 -6 2 -8 -3
-5 -6 4 -18 -4 -27 -18 -13 -19 -13 -25 -3 -25 7 0 18 5 25 12 7 7 12 9 12 5
0 -4 0 -9 0 -12 0 -3 -1 -5 -2 -5 -2 0 -25 -6 -53 -15 -101 -30 -328 -11 -484
41 -89 30 -218 93 -279 137 -39 28 -43 35 -38 62 7 37 -10 226 -25 272 -7 21
-20 35 -40 42 -43 15 -45 35 -13 103 l29 60 -43 36 c-31 27 -42 44 -42 65 0
76 -64 147 -134 147 -36 0 -48 6 -81 40 l-39 40 28 26 c27 26 66 102 66 129 0
8 10 26 23 40 19 22 35 28 102 36 135 16 147 25 183 145 12 38 35 89 51 111
26 36 43 46 138 82 166 63 157 56 161 131 4 74 -18 144 -51 164 -12 7 -70 26
-129 41 -60 16 -108 31 -108 35 0 10 163 88 241 114 160 54 351 69 511 41z
m295 -137 c19 -33 67 -144 97 -225 8 -23 27 -88 41 -145 32 -124 48 -353 27
-370 -7 -6 -22 -33 -34 -60 -11 -26 -23 -48 -25 -48 -3 0 -20 13 -38 29 -39
34 -130 70 -197 78 -44 5 -48 4 -57 -19 -13 -34 -37 -41 -67 -21 -24 15 -29
14 -94 -12 l-70 -28 -65 18 c-36 9 -68 22 -71 27 -17 27 -44 191 -44 264 l0
82 51 38 c62 45 74 72 54 121 -20 48 -19 85 5 111 20 21 134 92 149 92 5 0 28
17 52 38 66 58 76 61 176 62 l91 0 19 -32z m-977 -85 c52 -14 106 -28 120 -32
50 -14 94 -159 58 -188 -7 -6 -44 -21 -83 -33 -163 -53 -202 -87 -254 -227
-44 -115 -51 -121 -171 -130 -101 -8 -121 -22 -150 -108 -15 -46 -32 -73 -58
-97 l-37 -32 -3 30 c-6 47 18 201 43 273 33 98 100 225 168 321 80 112 232
264 255 255 9 -3 60 -18 112 -32z m911 -713 c35 -11 84 -36 109 -55 49 -40 86
-43 104 -10 27 51 38 66 43 62 3 -3 1 -12 -3 -19 -5 -7 -9 -20 -10 -28 -2 -64
-63 -330 -95 -410 -26 -67 -29 -96 -10 -92 11 2 12 0 3 -11 -7 -8 -9 -17 -6
-20 12 -11 -38 2 -52 14 -19 16 -17 42 7 119 33 105 25 122 -126 282 -43 45
-82 93 -88 106 -10 22 -8 27 13 41 13 9 29 21 34 28 6 7 12 12 12 13 1 0 30
-9 65 -20z m297 -8 c2 -7 -3 -12 -10 -12 -8 0 -15 7 -15 15 0 18 19 15 25 -3z
m67 -22 c3 -6 -1 -7 -9 -4 -18 7 -21 14 -7 14 6 0 13 -4 16 -10z m239 -9 c4
-5 -3 -7 -14 -4 -23 6 -26 13 -6 13 8 0 17 -4 20 -9z m60 3 c13 -5 16 -20 14
-68 l-2 -61 -3 58 c-4 53 -16 74 -26 45 -2 -7 -3 -5 -2 4 2 9 -5 19 -14 21
-15 4 -15 5 1 6 9 0 23 -2 32 -5z m-377 -10 c-3 -3 -12 -4 -19 -1 -8 3 -5 6 6
6 11 1 17 -2 13 -5z m268 -4 c-3 -5 -12 -10 -18 -10 -7 0 -6 4 3 10 19 12 23
12 15 0z m-40 -30 c4 -6 -6 -10 -22 -10 -22 0 -25 2 -13 10 19 12 27 12 35 0z
m-65 -10 c0 -5 -7 -10 -16 -10 -8 0 -12 5 -9 10 3 6 10 10 16 10 5 0 9 -4 9
-10z m-183 -32 c-3 -8 -6 -5 -6 6 -1 11 2 17 5 13 3 -3 4 -12 1 -19z m210 -4
c-3 -3 -12 -4 -19 -1 -8 3 -5 6 6 6 11 1 17 -2 13 -5z m-514 -101 c110 -118
115 -130 87 -209 -28 -81 -26 -125 6 -164 l27 -31 -23 -52 c-36 -79 -48 -88
-122 -94 -111 -9 -165 21 -175 96 -7 48 15 115 59 178 33 48 37 108 13 167
-16 37 -15 38 15 73 18 19 36 46 42 59 6 13 15 24 19 24 4 0 28 -21 52 -47z
m-1301 -56 c60 3 94 -31 103 -101 6 -40 15 -58 41 -83 l34 -31 -20 -44 c-28
-62 -26 -102 6 -127 15 -12 33 -21 40 -21 7 0 16 -15 19 -32 11 -65 24 -222
19 -228 -15 -14 -220 236 -272 331 -55 104 -112 309 -112 407 0 25 2 24 50
-23 45 -45 54 -49 92 -48z m2018 57 c0 -8 -4 -12 -10 -9 -5 3 -10 10 -10 16 0
5 5 9 10 9 6 0 10 -7 10 -16z m-20 -123 c0 -11 -4 -23 -10 -26 -6 -4 -10 5
-10 19 0 14 5 26 10 26 6 0 10 -9 10 -19z m-23 -83 c-3 -8 -6 -5 -6 6 -1 11 2
17 5 13 3 -3 4 -12 1 -19z m-10 -40 c-3 -8 -6 -5 -6 6 -1 11 2 17 5 13 3 -3 4
-12 1 -19z m-70 -50 c-3 -8 -6 -5 -6 6 -1 11 2 17 5 13 3 -3 4 -12 1 -19z m28
-18 c-3 -5 -11 -10 -16 -10 -6 0 -7 5 -4 10 3 6 11 10 16 10 6 0 7 -4 4 -10z
m-12 -65 c-3 -9 -8 -14 -10 -11 -3 3 -2 9 2 15 9 16 15 13 8 -4z m-428 -6 c11
-17 -1 -21 -15 -4 -8 9 -8 15 -2 15 6 0 14 -5 17 -11z m332 -51 c-3 -8 -6 -5
-6 6 -1 11 2 17 5 13 3 -3 4 -12 1 -19z m61 -8 c-7 -10 -14 -18 -15 -16 -6 6
9 36 18 36 5 0 4 -9 -3 -20z m-43 -60 c3 -5 1 -10 -4 -10 -6 0 -11 5 -11 10 0
6 2 10 4 10 3 0 8 -4 11 -10z m-348 -37 c0 -8 -4 -9 -12 -3 -7 6 -17 3 -28
-10 -9 -11 -22 -20 -27 -20 -6 0 0 11 14 23 28 26 53 31 53 10z m328 -3 c-3
-5 -12 -10 -18 -10 -7 0 -6 4 3 10 19 12 23 12 15 0z m-45 -3 c0 -2 -9 -12
-20 -22 -24 -21 -27 -14 -4 9 15 15 24 20 24 13z m8 -47 c-25 -34 -24 -34 -34
-18 -5 7 -3 8 6 3 10 -6 12 -4 6 11 -4 10 -4 15 0 12 3 -4 13 -1 21 7 24 25
25 17 1 -15z m-301 14 c-3 -3 -12 -4 -19 -1 -8 3 -5 6 6 6 11 1 17 -2 13 -5z
m254 -67 c-10 -9 -11 -8 -5 6 3 10 9 15 12 12 3 -3 0 -11 -7 -18z m-420 -24
c-12 -20 -14 -14 -5 12 4 9 9 14 11 11 3 -2 0 -13 -6 -23z m356 -20 c1 -22 -1
-24 -8 -10 -6 9 -7 22 -4 27 9 14 10 13 12 -17z m31 13 c-7 -8 -15 -12 -17
-11 -5 6 10 25 20 25 5 0 4 -6 -3 -14z m-97 -39 c-7 -7 -14 -8 -21 -1 -6 6 -2
10 12 11 16 2 18 -1 9 -10z m23 -16 c3 -4 -4 -17 -15 -27 -18 -16 -19 -16 -13
-1 3 9 10 17 16 17 5 0 6 5 3 10 -3 6 -4 10 -1 10 3 0 7 -4 10 -9z m-41 -26
c-3 -13 -17 -31 -32 -40 l-26 -16 23 20 c12 10 22 29 22 40 0 12 4 21 9 21 4
0 6 -11 4 -25z m-362 -72 c-12 -20 -14 -14 -5 12 4 9 9 14 11 11 3 -2 0 -13
-6 -23z m246 -15 c-15 -9 -19 -4 -11 16 5 14 9 15 15 5 5 -8 3 -17 -4 -21z
m53 26 c0 -8 -19 -13 -24 -6 -3 5 1 9 9 9 8 0 15 -2 15 -3z m-88 -38 c7 4 8 2
4 -4 -12 -20 -26 -13 -25 11 1 17 2 18 6 4 2 -9 9 -14 15 -11z m-52 -21 c-7
-8 -17 -15 -22 -15 -11 0 14 29 26 30 5 0 3 -7 -4 -15z m-83 -11 c-3 -3 -12
-4 -19 -1 -8 3 -5 6 6 6 11 1 17 -2 13 -5z m42 -18 c-12 -10 -69 -24 -69 -16
0 5 10 11 23 13 31 6 51 8 46 3z"/>
</g>
</svg>
